# Blender 5.0.1
# www.blender.org
mtllib hekje.mtl
o Cube
v -0.094714 -0.178522 3.587484
v -0.094714 6.416475 3.587484
v -0.094714 -0.178522 1.587484
v -0.094714 6.416475 1.587484
v 0.094714 -0.178522 3.587484
v 0.094714 6.416475 3.587484
v 0.094714 -0.178522 1.587484
v 0.094714 6.416475 1.587484
v -0.094714 -0.178522 2.587484
v -0.094714 7.330710 2.587484
v 0.094714 -0.178522 2.587484
v 0.094714 7.330710 2.587484
vn -0.0000 -0.0000 -1.0000
vn -1.0000 -0.0000 -0.0000
vn -0.0000 -0.0000 1.0000
vn -0.0000 -1.0000 -0.0000
vn -0.0000 0.7380 0.6747
vn -0.0000 0.7380 -0.6747
vn 1.0000 -0.0000 -0.0000
vt 0.375000 0.250000
vt 0.625000 0.250000
vt 0.625000 0.500000
vt 0.375000 0.500000
vt 0.375000 0.000000
vt 0.625000 0.000000
vt 0.625000 0.125000
vt 0.375000 0.125000
vt 0.375000 0.750000
vt 0.625000 0.750000
vt 0.625000 1.000000
vt 0.375000 1.000000
vt 0.125000 0.625000
vt 0.375000 0.625000
vt 0.125000 0.750000
vt 0.625000 0.625000
vt 0.875000 0.625000
vt 0.875000 0.750000
vt 0.875000 0.500000
vt 0.125000 0.500000
s 0
f 3/1/1 4/2/1 8/3/1 7/4/1
f 1/5/2 2/6/2 10/7/2 4/2/2 3/1/2 9/8/2
f 5/9/3 6/10/3 2/11/3 1/12/3
f 9/13/4 11/14/4 5/9/4 1/15/4
f 12/16/5 10/17/5 2/18/5 6/10/5
f 8/3/6 4/19/6 10/17/6 12/16/6
f 3/20/4 7/4/4 11/14/4 9/13/4
f 7/4/7 8/3/7 12/16/7 6/10/7 5/9/7 11/14/7
o Cube.001
v -0.094714 -0.178522 1.000000
v -0.094714 6.416475 1.000000
v -0.094714 -0.178522 -1.000000
v -0.094714 6.416475 -1.000000
v 0.094714 -0.178522 1.000000
v 0.094714 6.416475 1.000000
v 0.094714 -0.178522 -1.000000
v 0.094714 6.416475 -1.000000
v -0.094714 -0.178522 0.000000
v -0.094714 7.330710 0.000000
v 0.094714 -0.178522 0.000000
v 0.094714 7.330710 0.000000
vn -0.0000 -0.0000 -1.0000
vn -1.0000 -0.0000 -0.0000
vn -0.0000 -0.0000 1.0000
vn -0.0000 -1.0000 -0.0000
vn -0.0000 0.7380 0.6747
vn -0.0000 0.7380 -0.6747
vn 1.0000 -0.0000 -0.0000
vt 0.375000 0.250000
vt 0.625000 0.250000
vt 0.625000 0.500000
vt 0.375000 0.500000
vt 0.375000 0.000000
vt 0.625000 0.000000
vt 0.625000 0.125000
vt 0.375000 0.125000
vt 0.375000 0.750000
vt 0.625000 0.750000
vt 0.625000 1.000000
vt 0.375000 1.000000
vt 0.125000 0.625000
vt 0.375000 0.625000
vt 0.125000 0.750000
vt 0.625000 0.625000
vt 0.875000 0.625000
vt 0.875000 0.750000
vt 0.875000 0.500000
vt 0.125000 0.500000
s 0
f 15/21/8 16/22/8 20/23/8 19/24/8
f 13/25/9 14/26/9 22/27/9 16/22/9 15/21/9 21/28/9
f 17/29/10 18/30/10 14/31/10 13/32/10
f 21/33/11 23/34/11 17/29/11 13/35/11
f 24/36/12 22/37/12 14/38/12 18/30/12
f 20/23/13 16/39/13 22/37/13 24/36/13
f 15/40/11 19/24/11 23/34/11 21/33/11
f 19/24/14 20/23/14 24/36/14 18/30/14 17/29/14 23/34/14
