# Blender 5.0.1
# www.blender.org
mtllib UnityWorkshop2_PlantFinished.mtl
o Cube
v -0.173942 0.179875 0.013593
v -0.173942 0.269465 0.013593
v -0.173942 0.179875 -0.075996
v -0.173942 0.269465 -0.075996
v -0.084352 0.179875 0.013593
v -0.084352 0.269465 0.013593
v -0.084352 0.179875 -0.075996
v -0.084352 0.269465 -0.075996
vn -1.0000 -0.0000 -0.0000
vn -0.0000 -0.0000 -1.0000
vn 1.0000 -0.0000 -0.0000
vn -0.0000 -0.0000 1.0000
vn -0.0000 -1.0000 -0.0000
vn -0.0000 1.0000 -0.0000
vt 0.375000 0.000000
vt 0.625000 0.000000
vt 0.625000 0.250000
vt 0.375000 0.250000
vt 0.625000 0.500000
vt 0.375000 0.500000
vt 0.625000 0.750000
vt 0.375000 0.750000
vt 0.625000 1.000000
vt 0.375000 1.000000
vt 0.125000 0.500000
vt 0.125000 0.750000
vt 0.875000 0.500000
vt 0.875000 0.750000
s 0
f 1/1/1 2/2/1 4/3/1 3/4/1
f 3/4/2 4/3/2 8/5/2 7/6/2
f 7/6/3 8/5/3 6/7/3 5/8/3
f 5/8/4 6/7/4 2/9/4 1/10/4
f 3/11/5 7/6/5 5/8/5 1/12/5
f 8/5/6 4/13/6 2/14/6 6/7/6
o Cube.001
v 0.026290 0.179875 -0.098732
v 0.026290 0.427780 -0.098732
v 0.026290 0.179875 -0.188322
v 0.026290 0.427780 -0.188322
v 0.115880 0.179875 -0.098732
v 0.115880 0.427780 -0.098732
v 0.115880 0.179875 -0.188322
v 0.115880 0.427780 -0.188322
vn -1.0000 -0.0000 -0.0000
vn -0.0000 -0.0000 -1.0000
vn 1.0000 -0.0000 -0.0000
vn -0.0000 -0.0000 1.0000
vn -0.0000 -1.0000 -0.0000
vn -0.0000 1.0000 -0.0000
vt 0.375000 0.000000
vt 0.625000 0.000000
vt 0.625000 0.250000
vt 0.375000 0.250000
vt 0.625000 0.500000
vt 0.375000 0.500000
vt 0.625000 0.750000
vt 0.375000 0.750000
vt 0.625000 1.000000
vt 0.375000 1.000000
vt 0.125000 0.500000
vt 0.125000 0.750000
vt 0.875000 0.500000
vt 0.875000 0.750000
s 0
f 9/15/7 10/16/7 12/17/7 11/18/7
f 11/18/8 12/17/8 16/19/8 15/20/8
f 15/20/9 16/19/9 14/21/9 13/22/9
f 13/22/10 14/21/10 10/23/10 9/24/10
f 11/25/11 15/20/11 13/22/11 9/26/11
f 16/19/12 12/27/12 10/28/12 14/21/12
o Cube.002
v -0.007896 0.179875 0.164989
v -0.007896 0.326372 0.164989
v -0.007896 0.179875 0.075399
v -0.007896 0.326372 0.075399
v 0.081694 0.179875 0.164989
v 0.081694 0.326372 0.164989
v 0.081694 0.179875 0.075399
v 0.081694 0.326372 0.075399
vn -1.0000 -0.0000 -0.0000
vn -0.0000 -0.0000 -1.0000
vn 1.0000 -0.0000 -0.0000
vn -0.0000 -0.0000 1.0000
vn -0.0000 -1.0000 -0.0000
vn -0.0000 1.0000 -0.0000
vt 0.375000 0.000000
vt 0.625000 0.000000
vt 0.625000 0.250000
vt 0.375000 0.250000
vt 0.625000 0.500000
vt 0.375000 0.500000
vt 0.625000 0.750000
vt 0.375000 0.750000
vt 0.625000 1.000000
vt 0.375000 1.000000
vt 0.125000 0.500000
vt 0.125000 0.750000
vt 0.875000 0.500000
vt 0.875000 0.750000
s 0
f 17/29/13 18/30/13 20/31/13 19/32/13
f 19/32/14 20/31/14 24/33/14 23/34/14
f 23/34/15 24/33/15 22/35/15 21/36/15
f 21/36/16 22/35/16 18/37/16 17/38/16
f 19/39/17 23/34/17 21/36/17 17/40/17
f 24/33/18 20/41/18 18/42/18 22/35/18
o Cube.003
v -0.007500 0.178854 0.183314
v -0.007500 0.456378 0.183314
v -0.007500 0.178854 0.054361
v -0.007500 0.456378 0.054361
v 0.121453 0.178854 0.183314
v 0.121453 0.456378 0.183314
v 0.121453 0.178854 0.054361
v 0.121453 0.456378 0.054361
vn -1.0000 -0.0000 -0.0000
vn -0.0000 -0.0000 -1.0000
vn 1.0000 -0.0000 -0.0000
vn -0.0000 -0.0000 1.0000
vn -0.0000 -1.0000 -0.0000
vn -0.0000 1.0000 -0.0000
vt 0.375000 0.000000
vt 0.625000 0.000000
vt 0.625000 0.250000
vt 0.375000 0.250000
vt 0.625000 0.500000
vt 0.375000 0.500000
vt 0.625000 0.750000
vt 0.375000 0.750000
vt 0.625000 1.000000
vt 0.375000 1.000000
vt 0.125000 0.500000
vt 0.125000 0.750000
vt 0.875000 0.500000
vt 0.875000 0.750000
s 0
f 25/43/19 26/44/19 28/45/19 27/46/19
f 27/46/20 28/45/20 32/47/20 31/48/20
f 31/48/21 32/47/21 30/49/21 29/50/21
f 29/50/22 30/49/22 26/51/22 25/52/22
f 27/53/23 31/48/23 29/50/23 25/54/23
f 32/47/24 28/55/24 26/56/24 30/49/24
o Cube.004
v -0.174590 0.178854 0.011228
v -0.174590 0.375618 0.011228
v -0.174590 0.178854 -0.076606
v -0.174590 0.375618 -0.076606
v -0.086755 0.178854 0.011228
v -0.086755 0.375618 0.011228
v -0.086755 0.178854 -0.076606
v -0.086755 0.375618 -0.076606
vn -1.0000 -0.0000 -0.0000
vn -0.0000 -0.0000 -1.0000
vn 1.0000 -0.0000 -0.0000
vn -0.0000 -0.0000 1.0000
vn -0.0000 -1.0000 -0.0000
vn -0.0000 1.0000 -0.0000
vt 0.375000 0.000000
vt 0.625000 0.000000
vt 0.625000 0.250000
vt 0.375000 0.250000
vt 0.625000 0.500000
vt 0.375000 0.500000
vt 0.625000 0.750000
vt 0.375000 0.750000
vt 0.625000 1.000000
vt 0.375000 1.000000
vt 0.125000 0.500000
vt 0.125000 0.750000
vt 0.875000 0.500000
vt 0.875000 0.750000
s 0
f 33/57/25 34/58/25 36/59/25 35/60/25
f 35/60/26 36/59/26 40/61/26 39/62/26
f 39/62/27 40/61/27 38/63/27 37/64/27
f 37/64/28 38/63/28 34/65/28 33/66/28
f 35/67/29 39/62/29 37/64/29 33/68/29
f 40/61/30 36/69/30 34/70/30 38/63/30
o Cube.005
v -0.058230 0.178854 -0.049607
v -0.058230 0.576354 -0.049607
v -0.058230 0.178854 -0.264305
v -0.058230 0.576354 -0.264305
v 0.156468 0.178854 -0.049607
v 0.156468 0.576354 -0.049607
v 0.156468 0.178854 -0.264305
v 0.156468 0.576354 -0.264305
vn -1.0000 -0.0000 -0.0000
vn -0.0000 -0.0000 -1.0000
vn 1.0000 -0.0000 -0.0000
vn -0.0000 -0.0000 1.0000
vn -0.0000 -1.0000 -0.0000
vn -0.0000 1.0000 -0.0000
vt 0.375000 0.000000
vt 0.625000 0.000000
vt 0.625000 0.250000
vt 0.375000 0.250000
vt 0.625000 0.500000
vt 0.375000 0.500000
vt 0.625000 0.750000
vt 0.375000 0.750000
vt 0.625000 1.000000
vt 0.375000 1.000000
vt 0.125000 0.500000
vt 0.125000 0.750000
vt 0.875000 0.500000
vt 0.875000 0.750000
s 0
f 41/71/31 42/72/31 44/73/31 43/74/31
f 43/74/32 44/73/32 48/75/32 47/76/32
f 47/76/33 48/75/33 46/77/33 45/78/33
f 45/78/34 46/77/34 42/79/34 41/80/34
f 43/81/35 47/76/35 45/78/35 41/82/35
f 48/75/36 44/83/36 42/84/36 46/77/36
o Plant_Finished
v -0.076247 0.378364 0.076247
v -0.137402 0.829417 0.137402
v -0.076247 0.378364 -0.076247
v -0.137402 0.829417 -0.137402
v 0.076247 0.378364 0.076247
v 0.137402 0.829417 0.137402
v 0.076247 0.378364 -0.076247
v 0.137402 0.829417 -0.137402
v -0.225526 0.484648 -0.225526
v -0.225526 0.484648 0.225526
v 0.225526 0.484648 -0.225526
v 0.225526 0.484648 0.225526
v -0.076247 0.175202 -0.076247
v -0.076247 0.175202 0.076247
v 0.076247 0.175202 -0.076247
v 0.076247 0.175202 0.076247
v -0.225526 0.829417 0.225526
v -0.225526 0.723133 -0.225526
v 0.225526 0.723133 -0.225526
v 0.225526 0.723133 0.225526
v -0.137402 0.922538 0.137402
v -0.137402 0.922538 -0.137402
v 0.137402 0.922538 -0.137402
v 0.137402 0.922538 0.137402
v -0.225526 0.378364 -0.225526
v -0.225526 0.378364 0.225526
v -0.225526 0.723133 0.225526
v -0.225526 0.829417 -0.225526
v 0.225526 0.378364 -0.225526
v 0.225526 0.829417 -0.225526
v 0.225526 0.378364 0.225526
v 0.225526 0.829417 0.225526
v -0.286248 0.484648 0.286248
v -0.286248 0.723133 0.286248
v -0.286248 0.723133 -0.286248
v -0.286248 0.484648 -0.286248
v 0.286248 0.723133 -0.286248
v 0.286248 0.484648 -0.286248
v 0.286248 0.723133 0.286248
v 0.286248 0.484648 0.286248
vn -0.0000 1.0000 -0.0000
vn 1.0000 -0.0000 -0.0000
vn -0.0000 -1.0000 -0.0000
vn -1.0000 -0.0000 -0.0000
vn -0.0000 -0.0000 1.0000
vn -0.0000 -0.0000 -1.0000
vt 0.566091 0.000000
vt 0.566091 0.250000
vt 0.566091 0.500000
vt 0.566091 0.750000
vt 0.566091 1.000000
vt 0.292260 0.582740
vt 0.292260 0.667260
vt 0.673844 0.701157
vt 0.673844 0.548844
vt 0.207740 0.582740
vt 0.207740 0.667260
vt 0.125000 0.750000
vt 0.125000 0.500000
vt 0.375000 0.500000
vt 0.375000 0.750000
vt 0.826156 0.701156
vt 0.826156 0.548844
vt 0.875000 0.500000
vt 0.875000 0.750000
vt 0.625000 0.500000
vt 0.625000 0.750000
vt 0.433909 0.000000
vt 0.433909 0.250000
vt 0.375000 0.250000
vt 0.375000 0.000000
vt 0.625000 0.000000
vt 0.625000 0.250000
vt 0.433909 0.500000
vt 0.433909 0.750000
vt 0.433909 1.000000
vt 0.375000 1.000000
vt 0.625000 1.000000
s 0
f 75/85/37 66/86/37 83/86/37 82/85/37
f 66/86/37 67/87/37 85/87/37 83/86/37
f 67/87/37 68/88/37 87/88/37 85/87/37
f 68/88/37 75/89/37 82/89/37 87/88/37
f 55/90/38 53/91/38 64/91/38 63/90/38
f 54/92/38 56/93/38 71/93/38 72/92/38
f 51/94/39 49/95/39 74/96/39 73/97/39
f 55/90/39 51/94/39 73/97/39 77/98/39
f 53/91/39 55/90/39 77/98/39 79/99/39
f 49/95/39 53/91/39 79/99/39 74/96/39
f 61/94/39 63/90/39 64/91/39 62/95/39
f 49/95/40 51/94/40 61/94/40 62/95/40
f 53/91/41 49/95/41 62/95/41 64/91/41
f 51/94/42 55/90/42 63/90/42 61/94/42
f 50/100/37 52/101/37 76/102/37 65/103/37
f 52/101/37 56/93/37 78/104/37 76/102/37
f 56/93/37 54/92/37 80/105/37 78/104/37
f 54/92/37 50/100/37 65/103/37 80/105/37
f 71/93/37 70/101/37 69/100/37 72/92/37
f 52/101/40 50/100/40 69/100/40 70/101/40
f 50/100/41 54/92/41 72/92/41 69/100/41
f 56/93/42 52/101/42 70/101/42 71/93/42
f 58/106/40 57/107/40 73/108/40 74/109/40
f 66/86/40 75/85/40 65/110/40 76/111/40
f 57/107/42 59/112/42 77/98/42 73/108/42
f 67/87/42 66/86/42 76/111/42 78/104/42
f 59/112/38 60/113/38 79/99/38 77/98/38
f 68/88/38 67/87/38 78/104/38 80/105/38
f 60/113/41 58/114/41 74/115/41 79/99/41
f 75/89/41 68/88/41 80/105/41 65/116/41
f 81/106/40 82/85/40 83/86/40 84/107/40
f 84/107/42 83/86/42 85/87/42 86/112/42
f 86/112/38 85/87/38 87/88/38 88/113/38
f 88/113/41 87/88/41 82/89/41 81/114/41
f 58/114/39 60/113/39 88/113/39 81/114/39
f 60/113/39 59/112/39 86/112/39 88/113/39
f 59/112/39 57/107/39 84/107/39 86/112/39
f 57/107/39 58/106/39 81/106/39 84/107/39
